<?xml version="1.0" standalone="no"?>
<!DOCTYPE svg PUBLIC "-//W3C//DTD SVG 20010904//EN"
 "http://www.w3.org/TR/2001/REC-SVG-20010904/DTD/svg10.dtd">
<svg version="1.0" xmlns="http://www.w3.org/2000/svg"
 width="191.000000pt" height="256.000000pt" viewBox="0 0 191.000000 256.000000"
 preserveAspectRatio="xMidYMid meet">

<g transform="translate(0.000000,256.000000) scale(0.100000,-0.100000)"
fill="#000000" stroke="none">
<path d="M606 2493 c-6 -14 -5 -15 5 -6 7 7 10 15 7 18 -3 3 -9 -2 -12 -12z"/>
<path d="M172 2483 c-45 -22 -89 -86 -115 -168 -28 -90 -30 -301 -4 -409 21
-84 70 -186 104 -218 23 -20 22 -17 -6 21 -89 125 -128 445 -76 620 21 67 92
143 151 159 36 9 37 10 9 11 -16 0 -45 -7 -63 -16z"/>
<path d="M575 2443 c-31 -46 -66 -73 -99 -74 -25 0 -27 -2 -11 -8 28 -11 49
-3 78 27 27 30 62 82 54 82 -2 0 -13 -12 -22 -27z"/>
<path d="M1765 2290 c14 -62 17 -180 5 -231 -19 -83 -82 -204 -157 -305 -79
-104 -358 -440 -374 -450 -29 -18 12 52 104 176 243 327 314 479 287 618 -9
49 -37 118 -45 110 -2 -1 3 -28 11 -58 26 -101 14 -179 -50 -315 -55 -118
-319 -511 -349 -520 -7 -2 -24 -6 -39 -9 -62 -14 -199 -174 -297 -349 -18 -32
-35 -56 -38 -53 -10 10 19 353 34 391 18 49 27 95 19 95 -4 0 -38 -16 -76 -35
-69 -35 -70 -35 -71 -13 0 19 -3 17 -17 -12 -13 -28 -16 -73 -17 -225 0 -159
-4 -205 -22 -280 -15 -62 -27 -164 -38 -330 -16 -245 -31 -350 -59 -404 -9
-16 -16 -41 -16 -55 l0 -26 104 52 104 51 6 86 c3 47 9 130 12 185 l7 98 27
-78 c25 -75 75 -184 84 -184 3 0 -7 28 -21 62 -46 114 -64 205 -70 361 l-6
147 28 53 c36 66 135 227 140 227 2 0 -11 -33 -29 -72 -41 -91 -72 -185 -85
-262 -23 -126 -7 -311 34 -398 8 -18 13 -24 9 -13 -57 192 -38 422 54 640 57
135 84 185 103 196 21 11 59 4 59 -11 0 -5 -27 -51 -60 -102 -154 -237 -188
-471 -103 -696 24 -64 25 -45 1 28 -30 94 -30 265 1 375 26 92 80 205 142 296
l43 63 8 -29 c6 -23 2 -37 -16 -65 -28 -43 -68 -120 -62 -120 3 0 19 25 36 55
17 30 36 55 41 55 16 0 0 -39 -37 -90 -43 -60 -89 -159 -109 -235 -19 -70 -22
-219 -6 -289 17 -71 71 -181 125 -254 54 -72 72 -77 153 -37 105 53 239 222
352 445 66 130 166 375 177 434 13 74 -19 34 -57 -70 -129 -357 -295 -641
-399 -684 -44 -18 -63 -5 -74 53 -9 45 25 718 43 856 1 2 43 47 94 99 l92 96
-91 -82 c-51 -45 -94 -82 -98 -82 -3 0 -6 11 -6 25 0 25 20 48 306 372 75 85
179 217 199 253 13 25 -9 0 -57 -61 -36 -47 -279 -321 -424 -478 -39 -43 -42
-44 -52 -24 -10 18 8 45 163 238 197 244 249 320 303 432 37 78 37 78 36 208
0 81 -5 139 -12 155 l-13 25 6 -25z m-635 -1696 c-12 -181 -20 -348 -18 -371
2 -24 0 -43 -3 -43 -12 0 -69 137 -85 205 -23 98 -14 245 20 344 26 75 94 206
102 198 3 -3 -4 -153 -16 -333z"/>
<path d="M403 2043 c-10 -21 -28 -42 -40 -48 -28 -12 -28 -17 -2 -41 21 -19
21 -18 45 9 18 21 24 40 24 73 0 24 -2 44 -4 44 -2 0 -13 -17 -23 -37z"/>
<path d="M1830 1860 c-6 -11 -8 -20 -6 -20 3 0 10 9 16 20 6 11 8 20 6 20 -3
0 -10 -9 -16 -20z"/>
<path d="M1050 1569 c0 -5 5 -7 10 -4 6 3 10 8 10 11 0 2 -4 4 -10 4 -5 0 -10
-5 -10 -11z"/>
<path d="M431 1390 c-2 -129 12 -410 21 -410 10 0 0 356 -12 430 -7 44 -8 44
-9 -20z"/>
<path d="M567 1067 c-69 -100 -92 -127 -106 -127 -7 0 -11 -48 -11 -147 0 -82
-3 -166 -6 -188 -5 -38 -4 -39 10 -21 13 16 16 49 16 173 l0 153 53 73 c65 87
110 157 104 163 -2 2 -29 -33 -60 -79z"/>
<path d="M296 704 c-44 -76 -55 -104 -38 -104 9 0 95 171 88 177 -2 3 -25 -30
-50 -73z"/>
<path d="M176 426 c-18 -74 -21 -231 -6 -288 13 -44 35 -69 54 -62 12 5 12 11
1 37 -28 67 -29 218 -2 361 1 5 -5 11 -14 13 -13 3 -20 -11 -33 -61z"/>
<path d="M434 475 c-6 -11 -14 -39 -18 -62 -6 -45 -66 -241 -87 -285 -6 -15
-32 -44 -57 -63 -27 -21 -39 -35 -29 -35 31 0 87 62 122 134 36 75 89 271 83
309 -3 22 -4 22 -14 2z"/>
</g>
</svg>